%FSLAX24Y24*%
%MOIN*%
%SFA1B1*%

%IPPOS*%
%ADD13C,0.010000*%
%ADD16C,0.196900*%
%ADD17C,0.059100*%
%ADD18R,0.059100X0.059100*%
%ADD19C,0.025000*%
%ADD20C,0.050000*%
%LNpcb1-1*%
%LPD*%
G36*
X9750Y14687D02*
X9685Y14674D01*
X9623Y14633*
X9582Y14572*
X9568Y14500*
X9582Y14428*
X9623Y14367*
X9645Y14352*
Y12082*
X9595Y12065*
X9565Y12103*
X9491Y12160*
X9404Y12196*
X9311Y12208*
X9219Y12196*
X9132Y12160*
X9058Y12103*
X9001Y12029*
X8965Y11943*
X8953Y11850*
X8965Y11757*
X9001Y11671*
X9058Y11597*
X9132Y11540*
X9219Y11504*
X9311Y11492*
X9404Y11504*
X9491Y11540*
X9565Y11597*
X9595Y11635*
X9645Y11618*
Y11294*
X9595Y11277*
X9565Y11316*
X9491Y11373*
X9404Y11409*
X9311Y11421*
X9219Y11409*
X9132Y11373*
X9058Y11316*
X9001Y11242*
X8965Y11155*
X8953Y11063*
X8965Y10970*
X9001Y10883*
X9058Y10809*
X9132Y10752*
X9219Y10716*
X9311Y10704*
X9404Y10716*
X9491Y10752*
X9565Y10809*
X9595Y10848*
X9645Y10831*
Y10507*
X9595Y10490*
X9565Y10529*
X9491Y10586*
X9404Y10621*
X9311Y10634*
X9219Y10621*
X9132Y10586*
X9058Y10529*
X9001Y10454*
X8965Y10368*
X8953Y10275*
X8965Y10182*
X9001Y10096*
X9058Y10022*
X9132Y9965*
X9219Y9929*
X9311Y9917*
X9404Y9929*
X9491Y9965*
X9565Y10022*
X9595Y10061*
X9645Y10044*
Y9719*
X9595Y9702*
X9565Y9741*
X9491Y9798*
X9404Y9834*
X9311Y9846*
X9219Y9834*
X9132Y9798*
X9058Y9741*
X9001Y9667*
X8965Y9581*
X8953Y9488*
X8965Y9395*
X9001Y9309*
X9058Y9234*
X9132Y9177*
X9219Y9142*
X9311Y9129*
X9404Y9142*
X9491Y9177*
X9565Y9234*
X9595Y9273*
X9645Y9256*
Y8932*
X9595Y8915*
X9565Y8954*
X9491Y9011*
X9404Y9047*
X9311Y9059*
X9219Y9047*
X9132Y9011*
X9058Y8954*
X9001Y8880*
X8965Y8793*
X8953Y8700*
X8965Y8608*
X9001Y8521*
X9058Y8447*
X9132Y8390*
X9219Y8354*
X9311Y8342*
X9404Y8354*
X9491Y8390*
X9565Y8447*
X9595Y8486*
X9645Y8469*
Y8405*
X9471Y8231*
X9404Y8259*
X9311Y8271*
X9219Y8259*
X9132Y8223*
X9058Y8166*
X9001Y8092*
X8965Y8006*
X8953Y7913*
X8965Y7820*
X9001Y7734*
X9058Y7660*
X9132Y7603*
X9219Y7567*
X9311Y7555*
X9404Y7567*
X9491Y7603*
X9565Y7660*
X9622Y7734*
X9658Y7820*
X9670Y7913*
X9658Y8006*
X9630Y8073*
X9704Y8147*
X9750Y8128*
Y2258*
X9700Y2235*
X9589Y2330*
X9444Y2419*
X9286Y2484*
X9120Y2524*
X9000Y2534*
Y1450*
Y366*
X9120Y376*
X9286Y416*
X9444Y481*
X9589Y570*
X9700Y665*
X9750Y642*
Y250*
X250*
Y703*
X297Y721*
X331Y681*
X461Y570*
X606Y481*
X764Y416*
X930Y376*
X1050Y366*
Y1450*
Y2534*
X930Y2524*
X764Y2484*
X606Y2419*
X461Y2330*
X331Y2219*
X297Y2179*
X250Y2197*
Y4566*
X300Y4575*
X305Y4564*
X368Y4481*
X451Y4418*
X547Y4378*
X600Y4371*
Y4763*
X650*
Y4813*
X1042*
X1035Y4867*
X995Y4963*
X932Y5045*
X849Y5109*
X753Y5148*
X726Y5152*
Y5202*
X743Y5205*
X829Y5240*
X903Y5297*
X960Y5372*
X996Y5458*
X1008Y5551*
X996Y5644*
X960Y5730*
X903Y5804*
X829Y5861*
X743Y5897*
X650Y5909*
X557Y5897*
X471Y5861*
X397Y5804*
X340Y5730*
X304Y5644*
X300Y5614*
X250Y5617*
Y6272*
X300Y6275*
X304Y6245*
X340Y6159*
X397Y6085*
X471Y6028*
X557Y5992*
X650Y5980*
X743Y5992*
X829Y6028*
X903Y6085*
X960Y6159*
X996Y6245*
X1008Y6338*
X996Y6431*
X960Y6517*
X903Y6592*
X829Y6649*
X743Y6684*
X650Y6697*
X557Y6684*
X471Y6649*
X397Y6592*
X340Y6517*
X304Y6431*
X300Y6402*
X250Y6405*
Y7059*
X300Y7062*
X304Y7033*
X340Y6946*
X397Y6872*
X471Y6815*
X557Y6779*
X650Y6767*
X743Y6779*
X829Y6815*
X903Y6872*
X960Y6946*
X996Y7033*
X1008Y7126*
X996Y7218*
X960Y7305*
X903Y7379*
X829Y7436*
X743Y7472*
X650Y7484*
X557Y7472*
X471Y7436*
X397Y7379*
X340Y7305*
X304Y7218*
X300Y7189*
X250Y7192*
Y7846*
X300Y7850*
X304Y7820*
X340Y7734*
X397Y7660*
X471Y7603*
X557Y7567*
X650Y7555*
X743Y7567*
X829Y7603*
X903Y7660*
X960Y7734*
X996Y7820*
X1008Y7913*
X996Y8006*
X960Y8092*
X903Y8166*
X829Y8223*
X743Y8259*
X650Y8271*
X557Y8259*
X490Y8231*
X262Y8459*
Y8578*
X312Y8588*
X340Y8521*
X397Y8447*
X471Y8390*
X557Y8354*
X650Y8342*
X743Y8354*
X829Y8390*
X903Y8447*
X960Y8521*
X996Y8608*
X1008Y8700*
X996Y8793*
X960Y8880*
X903Y8954*
X829Y9011*
X743Y9047*
X650Y9059*
X557Y9047*
X471Y9011*
X397Y8954*
X340Y8880*
X312Y8813*
X262Y8823*
Y9365*
X312Y9375*
X340Y9309*
X397Y9234*
X471Y9177*
X557Y9142*
X650Y9129*
X743Y9142*
X829Y9177*
X903Y9234*
X960Y9309*
X996Y9395*
X1008Y9488*
X996Y9581*
X960Y9667*
X903Y9741*
X829Y9798*
X743Y9834*
X650Y9846*
X557Y9834*
X471Y9798*
X397Y9741*
X340Y9667*
X312Y9601*
X262Y9610*
Y10152*
X312Y10162*
X340Y10096*
X397Y10022*
X471Y9965*
X557Y9929*
X650Y9917*
X743Y9929*
X829Y9965*
X903Y10022*
X960Y10096*
X996Y10182*
X1003Y10238*
X1352*
X1367Y10217*
X1428Y10176*
X1500Y10161*
X1572Y10176*
X1633Y10217*
X1674Y10278*
X1689Y10350*
X1674Y10422*
X1633Y10483*
X1572Y10524*
X1500Y10539*
X1428Y10524*
X1367Y10483*
X1352Y10462*
X954*
X903Y10529*
X829Y10586*
X743Y10621*
X650Y10634*
X557Y10621*
X471Y10586*
X397Y10529*
X340Y10454*
X312Y10388*
X262Y10398*
Y10940*
X312Y10950*
X340Y10883*
X397Y10809*
X471Y10752*
X557Y10716*
X650Y10704*
X743Y10716*
X829Y10752*
X903Y10809*
X960Y10883*
X975Y10920*
X1027Y10929*
X1033Y10927*
X1090Y10888*
X1163Y10874*
X1235Y10888*
X1296Y10929*
X1337Y10990*
X1351Y11063*
X1337Y11135*
X1296Y11196*
X1235Y11237*
X1163Y11251*
X1090Y11237*
X1033Y11198*
X1027Y11196*
X975Y11205*
X960Y11242*
X903Y11316*
X829Y11373*
X743Y11409*
X650Y11421*
X557Y11409*
X471Y11373*
X397Y11316*
X340Y11242*
X312Y11175*
X262Y11185*
Y11458*
X295Y11495*
X312*
X644*
X700Y11487*
X2168*
X2249Y11498*
X2325Y11529*
X2390Y11579*
X2439Y11644*
X2471Y11719*
X2481Y11800*
X2471Y11881*
X2439Y11956*
X2390Y12021*
X2325Y12071*
X2249Y12102*
X2168Y12113*
X1005*
Y12205*
X312*
X295*
X262Y12242*
Y12368*
X306Y12392*
X312Y12388*
X350Y12381*
Y12600*
Y12819*
X312Y12812*
X306Y12808*
X262Y12832*
Y14378*
X285Y14396*
X357Y14410*
X418Y14451*
X459Y14512*
X473Y14585*
X459Y14657*
X430Y14700*
X453Y14750*
X9750*
Y14687*
G37*
%LNpcb1-2*%
%LPC*%
G36*
X3737Y3257D02*
X3700Y3249D01*
X3625Y3200*
X3575Y3125*
X3568Y3087*
X3737*
Y3257*
G37*
G36*
X4451Y3563D02*
X4370Y3552D01*
X4295Y3521*
X4230Y3472*
X4180Y3407*
X4148Y3332*
X4137Y3251*
X4148Y3170*
X4179Y3095*
X4228Y3030*
X4293Y2980*
X4368Y2948*
X4449Y2937*
X6140Y2932*
X6221Y2942*
X6297Y2973*
X6361Y3022*
X6411Y3087*
X6443Y3162*
X6454Y3243*
X6443Y3324*
X6412Y3400*
X6363Y3465*
X6298Y3514*
X6223Y3546*
X6142Y3557*
X4451Y3563*
G37*
G36*
X3837Y3257D02*
Y3087D01*
X4007*
X3999Y3125*
X3950Y3200*
X3875Y3249*
X3837Y3257*
G37*
G36*
X1042Y4713D02*
X700D01*
Y4371*
X753Y4378*
X849Y4418*
X932Y4481*
X995Y4564*
X1035Y4660*
X1042Y4713*
G37*
G36*
X9311Y5122D02*
X9219Y5110D01*
X9132Y5074*
X9058Y5017*
X9001Y4943*
X8965Y4856*
X8953Y4763*
X8965Y4671*
X9001Y4584*
X9058Y4510*
X9132Y4453*
X9219Y4417*
X9311Y4405*
X9404Y4417*
X9491Y4453*
X9565Y4510*
X9622Y4584*
X9658Y4671*
X9670Y4763*
X9658Y4856*
X9622Y4943*
X9565Y5017*
X9491Y5074*
X9404Y5110*
X9311Y5122*
G37*
G36*
X4007Y2987D02*
X3568D01*
X3575Y2950*
X3596Y2919*
X3575Y2888*
X3568Y2850*
X4007*
X3999Y2888*
X3979Y2919*
X3999Y2950*
X4007Y2987*
G37*
G36*
X1150Y2534D02*
Y1500D01*
X2184*
X2174Y1620*
X2134Y1786*
X2069Y1944*
X1980Y2089*
X1869Y2219*
X1739Y2330*
X1594Y2419*
X1436Y2484*
X1270Y2524*
X1150Y2534*
G37*
G36*
X8900Y1400D02*
X7866D01*
X7876Y1280*
X7916Y1114*
X7981Y956*
X8070Y811*
X8181Y681*
X8311Y570*
X8456Y481*
X8614Y416*
X8780Y376*
X8900Y366*
Y1400*
G37*
G36*
X2184D02*
X1150D01*
Y366*
X1270Y376*
X1436Y416*
X1594Y481*
X1739Y570*
X1869Y681*
X1980Y811*
X2069Y956*
X2134Y1114*
X2174Y1280*
X2184Y1400*
G37*
G36*
X4007Y2750D02*
X3837D01*
Y2581*
X3875Y2588*
X3950Y2638*
X3999Y2712*
X4007Y2750*
G37*
G36*
X3737D02*
X3568D01*
X3575Y2712*
X3625Y2638*
X3700Y2588*
X3737Y2581*
Y2750*
G37*
G36*
X8900Y2534D02*
X8780Y2524D01*
X8614Y2484*
X8456Y2419*
X8311Y2330*
X8181Y2219*
X8070Y2089*
X7981Y1944*
X7916Y1786*
X7876Y1620*
X7866Y1500*
X8900*
Y2534*
G37*
G36*
X9311Y5909D02*
X9219Y5897D01*
X9132Y5861*
X9058Y5804*
X9001Y5730*
X8965Y5644*
X8953Y5551*
X8965Y5458*
X9001Y5372*
X9058Y5297*
X9132Y5240*
X9219Y5205*
X9311Y5192*
X9404Y5205*
X9491Y5240*
X9565Y5297*
X9622Y5372*
X9658Y5458*
X9670Y5551*
X9658Y5644*
X9622Y5730*
X9565Y5804*
X9491Y5861*
X9404Y5897*
X9311Y5909*
G37*
G36*
X8883Y12900D02*
X8845Y12892D01*
X8771Y12843*
X8721Y12768*
X8713Y12730*
X8883*
Y12900*
G37*
G36*
X450Y12819D02*
Y12650D01*
X619*
X612Y12688*
X562Y12762*
X488Y12812*
X450Y12819*
G37*
G36*
X6084Y13500D02*
X5050D01*
Y12466*
X5170Y12476*
X5336Y12516*
X5494Y12581*
X5639Y12670*
X5769Y12781*
X5880Y12911*
X5969Y13056*
X6034Y13214*
X6074Y13380*
X6084Y13500*
G37*
G36*
X5050Y14634D02*
Y13600D01*
X6084*
X6074Y13720*
X6034Y13886*
X5969Y14044*
X5880Y14189*
X5769Y14319*
X5639Y14430*
X5494Y14519*
X5336Y14584*
X5170Y14624*
X5050Y14634*
G37*
G36*
X4950D02*
X4830Y14624D01*
X4664Y14584*
X4506Y14519*
X4361Y14430*
X4231Y14319*
X4120Y14189*
X4031Y14044*
X3966Y13886*
X3926Y13720*
X3916Y13600*
X4950*
Y14634*
G37*
G36*
X8983Y12900D02*
Y12730D01*
X9152*
X9145Y12768*
X9095Y12843*
X9021Y12892*
X8983Y12900*
G37*
G36*
X619Y12550D02*
X450D01*
Y12381*
X488Y12388*
X562Y12438*
X612Y12512*
X619Y12550*
G37*
G36*
X9311Y7484D02*
X9219Y7472D01*
X9132Y7436*
X9058Y7379*
X9001Y7305*
X8965Y7218*
X8953Y7126*
X8965Y7033*
X9001Y6946*
X9058Y6872*
X9132Y6815*
X9219Y6779*
X9311Y6767*
X9404Y6779*
X9491Y6815*
X9565Y6872*
X9622Y6946*
X9658Y7033*
X9670Y7126*
X9658Y7218*
X9622Y7305*
X9565Y7379*
X9491Y7436*
X9404Y7472*
X9311Y7484*
G37*
G36*
Y6697D02*
X9219Y6684D01*
X9132Y6649*
X9058Y6592*
X9001Y6517*
X8965Y6431*
X8953Y6338*
X8965Y6245*
X9001Y6159*
X9058Y6085*
X9132Y6028*
X9219Y5992*
X9311Y5980*
X9404Y5992*
X9491Y6028*
X9565Y6085*
X9622Y6159*
X9658Y6245*
X9670Y6338*
X9658Y6431*
X9622Y6517*
X9565Y6592*
X9491Y6649*
X9404Y6684*
X9311Y6697*
G37*
G36*
X4950Y13500D02*
X3916D01*
X3926Y13380*
X3966Y13214*
X4031Y13056*
X4120Y12911*
X4231Y12781*
X4361Y12670*
X4506Y12581*
X4664Y12516*
X4830Y12476*
X4950Y12466*
Y13500*
G37*
G36*
X9152Y12630D02*
X8983D01*
Y12461*
X9021Y12469*
X9095Y12518*
X9145Y12593*
X9152Y12630*
G37*
G36*
X8883D02*
X8713D01*
X8721Y12593*
X8771Y12518*
X8845Y12469*
X8883Y12461*
Y12630*
G37*
%LNpcb1-3*%
%LPD*%
G54D13*
X150Y14514D02*
X285Y14585D01*
X150Y8413D02*
Y14514D01*
Y8413D02*
X650Y7913D01*
X725Y10350D02*
X1500D01*
X650Y10275D02*
X725Y10350D01*
X650Y11063D02*
X1163D01*
X650Y10275D02*
D01*
X9757Y8358D02*
Y14500D01*
X9311Y7913D02*
X9757Y8358D01*
G54D16*
X5000Y13550D03*
X8950Y1450D03*
X1100D03*
G54D17*
X9311Y11850D03*
Y11063D03*
Y10275D03*
Y9488D03*
Y8700D03*
Y7913D03*
Y7126D03*
Y6338D03*
Y5551D03*
Y4763D03*
X650D03*
Y5551D03*
Y6338D03*
Y7126D03*
Y7913D03*
Y8700D03*
Y9488D03*
Y10275D03*
Y11063D03*
G54D18*
X650Y11850D03*
G54D19*
X8933Y12680D03*
X400Y12600D03*
X1500Y10350D03*
X1163Y11063D03*
X4400Y3250D03*
X2168Y11800D03*
X9757Y14500D03*
X3787Y2800D03*
X285Y14585D03*
X3787Y3037D03*
X6141Y3244D03*
G54D20*
X700Y11800D02*
X2168D01*
X650Y11850D02*
X700Y11800D01*
X4450Y3250D02*
X6141Y3244D01*
M02*