%FSLAX24Y24*%
%MOIN*%
%SFA1B1*%

%IPPOS*%
%ADD13C,0.010000*%
%ADD21C,0.008000*%
%ADD22C,0.005900*%
%ADD23C,0.003900*%
%LNpcb1-1*%
%LPD*%
G54D13*
X7950Y11150D02*
X7350D01*
Y11450*
X7450Y11550*
X7650*
X7750Y11450*
Y11150*
Y11350D02*
X7950Y11550D01*
Y12150D02*
Y11750D01*
X7550Y12150*
X7450*
X7350Y12050*
Y11850*
X7450Y11750*
X8800Y11150D02*
X8200D01*
Y11450*
X8300Y11550*
X8500*
X8600Y11450*
Y11150*
Y11350D02*
X8800Y11550D01*
X8200Y12150D02*
Y11750D01*
X8500*
X8400Y11950*
Y12050*
X8500Y12150*
X8700*
X8800Y12050*
Y11850*
X8700Y11750*
X3339Y11150D02*
X2739D01*
Y11450*
X2839Y11550*
X3039*
X3139Y11450*
Y11150*
Y11350D02*
X3339Y11550D01*
X2839Y11750D02*
X2739Y11850D01*
Y12050*
X2839Y12150*
X2939*
X3039Y12050*
Y11950*
Y12050*
X3139Y12150*
X3239*
X3339Y12050*
Y11850*
X3239Y11750*
X2521Y11150D02*
X1921D01*
Y11450*
X2021Y11550*
X2221*
X2321Y11450*
Y11150*
Y11350D02*
X2521Y11550D01*
Y12050D02*
X1921D01*
X2221Y11750*
Y12150*
X1753Y11150D02*
X1153D01*
Y11450*
X1253Y11550*
X1453*
X1553Y11450*
Y11150*
Y11350D02*
X1753Y11550D01*
Y11750D02*
Y11950D01*
Y11850*
X1153*
X1253Y11750*
G54D21*
X8931Y13751D02*
Y14680D01*
X9600Y13751D02*
Y14680D01*
X9107Y13576D02*
X9425D01*
X377Y13751D02*
Y14680D01*
X1046Y13751D02*
Y14680D01*
X552Y13576D02*
X870D01*
X1071Y13751D02*
Y14680D01*
X1740Y13751D02*
Y14680D01*
X1246Y13576D02*
X1565D01*
X1765Y13751D02*
Y14680D01*
X2435Y13751D02*
Y14680D01*
X1941Y13576D02*
X2259D01*
X8265Y13735D02*
Y14665D01*
X8935Y13735D02*
Y14665D01*
X8441Y13560D02*
X8759D01*
X8265Y12551D02*
Y13480D01*
X8935Y12551D02*
Y13480D01*
X8931Y12551D02*
Y13480D01*
X9600Y12551D02*
Y13480D01*
X1754Y12485D02*
Y13415D01*
X2423Y12485D02*
Y13415D01*
X1060Y12485D02*
Y13415D01*
X1729Y12485D02*
Y13415D01*
X365Y12485D02*
Y13415D01*
X1035Y12485D02*
Y13415D01*
G54D22*
X6441Y2055D02*
X6866D01*
X7161Y86D02*
Y618D01*
Y1582D02*
Y1800D01*
X6866D02*
X7161D01*
X2850Y1799D02*
X3135D01*
Y2055*
X2850Y1582D02*
Y1799D01*
Y86D02*
X7161D01*
X2850D02*
Y618D01*
X6866Y1800D02*
Y2055D01*
X3135D02*
X3601D01*
G54D23*
X178Y1929D02*
Y12165D01*
X9784Y1929D02*
Y12165D01*
X3209Y14882D02*
X6752D01*
X178Y12165D02*
X2894Y14882D01*
X3209*
X7067D02*
X9784Y12165D01*
X6752Y14882D02*
X7067D01*
M02*