%FSLAX24Y24*%
%MOIN*%
%SFA1B1*%

%IPPOS*%
%AMD10*
4,1,8,0.017700,-0.015000,0.017700,0.015000,0.016000,0.016700,-0.016000,0.016700,-0.017700,0.015000,-0.017700,-0.015000,-0.016000,-0.016700,0.016000,-0.016700,0.017700,-0.015000,0.0*
1,1,0.003400,0.016000,-0.015000*
1,1,0.003400,0.016000,0.015000*
1,1,0.003400,-0.016000,0.015000*
1,1,0.003400,-0.016000,-0.015000*
%
G04~CAMADD=10~8~0.0~0.0~335.0~354.0~17.0~0.0~15~0.0~0.0~0.0~0.0~0~0.0~0.0~0.0~0.0~0~0.0~0.0~0.0~270.0~354.0~334.0*
%ADD10D10*%
%ADD11R,0.027600X0.070900*%
%ADD15R,0.063000X0.086600*%
%ADD16C,0.196900*%
%ADD17C,0.059100*%
%ADD18R,0.059100X0.059100*%
%LNpcb1-1*%
%LPD*%
G54D10*
X9266Y14550D03*
Y13880D03*
X711Y14550D03*
Y13880D03*
X1406Y14550D03*
Y13880D03*
X2100Y14550D03*
Y13880D03*
X8600Y14535D03*
Y13865D03*
Y13350D03*
Y12680D03*
X9266Y13350D03*
Y12680D03*
X2089Y13285D03*
Y12615D03*
X1394Y13285D03*
Y12615D03*
X700Y13285D03*
Y12615D03*
G54D11*
X3787Y2395D03*
X4280D03*
X4772D03*
X5264D03*
X5756D03*
X6248D03*
G54D15*
X7161Y1100D03*
X2850D03*
G54D16*
X5000Y13550D03*
X8950Y1450D03*
X1100D03*
G54D17*
X9311Y11850D03*
Y11063D03*
Y10275D03*
Y9488D03*
Y8700D03*
Y7913D03*
Y7126D03*
Y6338D03*
Y5551D03*
Y4763D03*
X650D03*
Y5551D03*
Y6338D03*
Y7126D03*
Y7913D03*
Y8700D03*
Y9488D03*
Y10275D03*
Y11063D03*
G54D18*
X650Y11850D03*
M02*