%FSLAX24Y24*%
%MOIN*%
%SFA1B1*%

%IPPOS*%
%AMD24*
4,1,8,0.021700,-0.015000,0.021700,0.015000,0.016000,0.020700,-0.016000,0.020700,-0.021700,0.015000,-0.021700,-0.015000,-0.016000,-0.020700,0.016000,-0.020700,0.021700,-0.015000,0.0*
1,1,0.011400,0.016000,-0.015000*
1,1,0.011400,0.016000,0.015000*
1,1,0.011400,-0.016000,0.015000*
1,1,0.011400,-0.016000,-0.015000*
%
G04~CAMADD=24~8~0.0~0.0~415.0~434.0~57.0~0.0~15~0.0~0.0~0.0~0.0~0~0.0~0.0~0.0~0.0~0~0.0~0.0~0.0~270.0~434.0~414.0*
%ADD24D24*%
%ADD25R,0.035600X0.078900*%
%ADD26R,0.071000X0.094600*%
%ADD27C,0.204900*%
%ADD28C,0.067100*%
%ADD29R,0.067100X0.067100*%
%ADD30C,0.033000*%
%LNpcb1-1*%
%LPD*%
G54D24*
X9266Y14550D03*
Y13880D03*
X711Y14550D03*
Y13880D03*
X1406Y14550D03*
Y13880D03*
X2100Y14550D03*
Y13880D03*
X8600Y14535D03*
Y13865D03*
Y13350D03*
Y12680D03*
X9266Y13350D03*
Y12680D03*
X2089Y13285D03*
Y12615D03*
X1394Y13285D03*
Y12615D03*
X700Y13285D03*
Y12615D03*
G54D25*
X3787Y2395D03*
X4280D03*
X4772D03*
X5264D03*
X5756D03*
X6248D03*
G54D26*
X7161Y1100D03*
X2850D03*
G54D27*
X5000Y13550D03*
X8950Y1450D03*
X1100D03*
G54D28*
X9311Y11850D03*
Y11063D03*
Y10275D03*
Y9488D03*
Y8700D03*
Y7913D03*
Y7126D03*
Y6338D03*
Y5551D03*
Y4763D03*
X650D03*
Y5551D03*
Y6338D03*
Y7126D03*
Y7913D03*
Y8700D03*
Y9488D03*
Y10275D03*
Y11063D03*
G54D29*
X650Y11850D03*
G54D30*
X8933Y12680D03*
M02*