G04 Layer_Color=8421504*
%FSLAX24Y24*%
%MOIN*%
G70*
G01*
G75*
G04:AMPARAMS|DCode=10|XSize=33.5mil|YSize=35.4mil|CornerRadius=1.7mil|HoleSize=0mil|Usage=FLASHONLY|Rotation=270.000|XOffset=0mil|YOffset=0mil|HoleType=Round|Shape=RoundedRectangle|*
%AMROUNDEDRECTD10*
21,1,0.0335,0.0321,0,0,270.0*
21,1,0.0301,0.0354,0,0,270.0*
1,1,0.0033,-0.0160,-0.0151*
1,1,0.0033,-0.0160,0.0151*
1,1,0.0033,0.0160,0.0151*
1,1,0.0033,0.0160,-0.0151*
%
%ADD10ROUNDEDRECTD10*%
%ADD11R,0.0276X0.0709*%
G36*
X3165Y667D02*
X2535D01*
Y1533D01*
X3165D01*
Y667D01*
D02*
G37*
G36*
X7476D02*
X6846D01*
Y1533D01*
X7476D01*
Y667D01*
D02*
G37*
D10*
X9266Y14550D02*
D03*
Y13880D02*
D03*
X711Y14550D02*
D03*
Y13880D02*
D03*
X1406Y14550D02*
D03*
Y13880D02*
D03*
X2100Y14550D02*
D03*
Y13880D02*
D03*
X8600Y14535D02*
D03*
Y13865D02*
D03*
Y13350D02*
D03*
Y12680D02*
D03*
X9266Y13350D02*
D03*
Y12680D02*
D03*
X2089Y13285D02*
D03*
Y12615D02*
D03*
X1394Y13285D02*
D03*
Y12615D02*
D03*
X700Y13285D02*
D03*
Y12615D02*
D03*
D11*
X3787Y2395D02*
D03*
X4280D02*
D03*
X4772D02*
D03*
X5264D02*
D03*
X5756D02*
D03*
X6248D02*
D03*
M02*
