G04 Layer_Color=255*
%FSLAX24Y24*%
%MOIN*%
G70*
G01*
G75*
G04:AMPARAMS|DCode=10|XSize=33.5mil|YSize=35.4mil|CornerRadius=1.7mil|HoleSize=0mil|Usage=FLASHONLY|Rotation=270.000|XOffset=0mil|YOffset=0mil|HoleType=Round|Shape=RoundedRectangle|*
%AMROUNDEDRECTD10*
21,1,0.0335,0.0321,0,0,270.0*
21,1,0.0301,0.0354,0,0,270.0*
1,1,0.0033,-0.0160,-0.0151*
1,1,0.0033,-0.0160,0.0151*
1,1,0.0033,0.0160,0.0151*
1,1,0.0033,0.0160,-0.0151*
%
%ADD10ROUNDEDRECTD10*%
%ADD11R,0.0276X0.0709*%
%ADD15R,0.0630X0.0866*%
%ADD16C,0.1969*%
%ADD17C,0.0591*%
%ADD18R,0.0591X0.0591*%
D10*
X9266Y14550D02*
D03*
Y13880D02*
D03*
X711Y14550D02*
D03*
Y13880D02*
D03*
X1406Y14550D02*
D03*
Y13880D02*
D03*
X2100Y14550D02*
D03*
Y13880D02*
D03*
X8600Y14535D02*
D03*
Y13865D02*
D03*
Y13350D02*
D03*
Y12680D02*
D03*
X9266Y13350D02*
D03*
Y12680D02*
D03*
X2089Y13285D02*
D03*
Y12615D02*
D03*
X1394Y13285D02*
D03*
Y12615D02*
D03*
X700Y13285D02*
D03*
Y12615D02*
D03*
D11*
X3787Y2395D02*
D03*
X4280D02*
D03*
X4772D02*
D03*
X5264D02*
D03*
X5756D02*
D03*
X6248D02*
D03*
D15*
X7161Y1100D02*
D03*
X2850D02*
D03*
D16*
X5000Y13550D02*
D03*
X8950Y1450D02*
D03*
X1100D02*
D03*
D17*
X9311Y11850D02*
D03*
Y11063D02*
D03*
Y10275D02*
D03*
Y9488D02*
D03*
Y8700D02*
D03*
Y7913D02*
D03*
Y7126D02*
D03*
Y6338D02*
D03*
Y5551D02*
D03*
Y4763D02*
D03*
X650D02*
D03*
Y5551D02*
D03*
Y6338D02*
D03*
Y7126D02*
D03*
Y7913D02*
D03*
Y8700D02*
D03*
Y9488D02*
D03*
Y10275D02*
D03*
Y11063D02*
D03*
D18*
Y11850D02*
D03*
M02*
