G04 Layer_Physical_Order=1*
G04 Layer_Color=255*
%FSLAX24Y24*%
%MOIN*%
G70*
G01*
G75*
G04:AMPARAMS|DCode=10|XSize=47.2mil|YSize=31.5mil|CornerRadius=1.6mil|HoleSize=0mil|Usage=FLASHONLY|Rotation=180.000|XOffset=0mil|YOffset=0mil|HoleType=Round|Shape=RoundedRectangle|*
%AMROUNDEDRECTD10*
21,1,0.0472,0.0283,0,0,180.0*
21,1,0.0441,0.0315,0,0,180.0*
1,1,0.0032,-0.0220,0.0142*
1,1,0.0032,0.0220,0.0142*
1,1,0.0032,0.0220,-0.0142*
1,1,0.0032,-0.0220,-0.0142*
%
%ADD10ROUNDEDRECTD10*%
%ADD11R,0.0236X0.0433*%
G04:AMPARAMS|DCode=12|XSize=33.5mil|YSize=35.4mil|CornerRadius=1.7mil|HoleSize=0mil|Usage=FLASHONLY|Rotation=90.000|XOffset=0mil|YOffset=0mil|HoleType=Round|Shape=RoundedRectangle|*
%AMROUNDEDRECTD12*
21,1,0.0335,0.0321,0,0,90.0*
21,1,0.0301,0.0354,0,0,90.0*
1,1,0.0033,0.0160,0.0151*
1,1,0.0033,0.0160,-0.0151*
1,1,0.0033,-0.0160,-0.0151*
1,1,0.0033,-0.0160,0.0151*
%
%ADD12ROUNDEDRECTD12*%
%ADD13R,0.0276X0.0709*%
%ADD14C,0.0200*%
%ADD15C,0.0100*%
%ADD16C,0.0300*%
%ADD17R,0.0591X0.0591*%
%ADD18C,0.0591*%
%ADD19C,0.1969*%
%ADD20R,0.0630X0.0866*%
%ADD21C,0.0250*%
G36*
X304Y10970D02*
X340Y10883D01*
X397Y10809D01*
X471Y10752D01*
X557Y10716D01*
X650Y10704D01*
X743Y10716D01*
X829Y10752D01*
X903Y10809D01*
X960Y10883D01*
X975Y10920D01*
X1027Y10929D01*
X1033Y10927D01*
X1090Y10888D01*
X1138Y10879D01*
Y7100D01*
X1138Y7100D01*
X1146Y7057D01*
X1171Y7021D01*
X5138Y3054D01*
Y2809D01*
X5066D01*
Y1990D01*
X5066Y1981D01*
X5042Y1940D01*
X4993D01*
X4969Y1981D01*
Y2809D01*
X4574D01*
Y1981D01*
X4609Y1978D01*
X4618Y1935D01*
X4642Y1899D01*
X4751Y1790D01*
X4730Y1741D01*
X4618D01*
X4424Y1934D01*
X4443Y1981D01*
X4477D01*
Y2809D01*
X4082D01*
Y1981D01*
X4103D01*
X4138Y1950D01*
X4146Y1907D01*
X4171Y1871D01*
X4492Y1549D01*
X4529Y1525D01*
X4572Y1516D01*
X4572Y1516D01*
X6461D01*
X6461Y1516D01*
X6504Y1525D01*
X6540Y1549D01*
X9197Y4206D01*
X9496D01*
X9496Y4206D01*
X9539Y4214D01*
X9575Y4239D01*
X9704Y4367D01*
X9750Y4348D01*
Y2193D01*
X9703Y2176D01*
X9691Y2191D01*
X9566Y2297D01*
X9426Y2383D01*
X9274Y2446D01*
X9114Y2485D01*
X8950Y2497D01*
X8786Y2485D01*
X8626Y2446D01*
X8474Y2383D01*
X8334Y2297D01*
X8209Y2191D01*
X8103Y2066D01*
X8017Y1926D01*
X7954Y1774D01*
X7915Y1614D01*
X7903Y1450D01*
X7915Y1286D01*
X7954Y1126D01*
X8017Y974D01*
X8103Y834D01*
X8209Y709D01*
X8334Y603D01*
X8474Y517D01*
X8626Y454D01*
X8786Y415D01*
X8950Y403D01*
X9114Y415D01*
X9274Y454D01*
X9426Y517D01*
X9566Y603D01*
X9691Y709D01*
X9703Y724D01*
X9750Y707D01*
Y250D01*
X250D01*
Y760D01*
X300Y779D01*
X359Y709D01*
X484Y603D01*
X624Y517D01*
X776Y454D01*
X936Y415D01*
X1100Y403D01*
X1264Y415D01*
X1424Y454D01*
X1576Y517D01*
X1716Y603D01*
X1841Y709D01*
X1947Y834D01*
X2033Y974D01*
X2096Y1126D01*
X2135Y1286D01*
X2147Y1450D01*
X2135Y1614D01*
X2096Y1774D01*
X2033Y1926D01*
X1947Y2066D01*
X1841Y2191D01*
X1716Y2297D01*
X1576Y2383D01*
X1424Y2446D01*
X1264Y2485D01*
X1100Y2497D01*
X936Y2485D01*
X776Y2446D01*
X624Y2383D01*
X484Y2297D01*
X359Y2191D01*
X300Y2121D01*
X250Y2140D01*
Y4697D01*
X300Y4700D01*
X304Y4671D01*
X340Y4584D01*
X397Y4510D01*
X471Y4453D01*
X557Y4417D01*
X650Y4405D01*
X743Y4417D01*
X829Y4453D01*
X903Y4510D01*
X960Y4584D01*
X996Y4671D01*
X1008Y4763D01*
X996Y4856D01*
X960Y4943D01*
X903Y5017D01*
X829Y5074D01*
X743Y5110D01*
X650Y5122D01*
X557Y5110D01*
X471Y5074D01*
X397Y5017D01*
X340Y4943D01*
X304Y4856D01*
X300Y4827D01*
X250Y4830D01*
Y5484D01*
X300Y5487D01*
X304Y5458D01*
X340Y5372D01*
X397Y5297D01*
X471Y5240D01*
X557Y5205D01*
X650Y5192D01*
X743Y5205D01*
X829Y5240D01*
X903Y5297D01*
X960Y5372D01*
X996Y5458D01*
X1008Y5551D01*
X996Y5644D01*
X960Y5730D01*
X903Y5804D01*
X829Y5861D01*
X743Y5897D01*
X650Y5909D01*
X557Y5897D01*
X471Y5861D01*
X397Y5804D01*
X340Y5730D01*
X304Y5644D01*
X300Y5614D01*
X250Y5617D01*
Y6272D01*
X300Y6275D01*
X304Y6245D01*
X340Y6159D01*
X397Y6085D01*
X471Y6028D01*
X557Y5992D01*
X650Y5980D01*
X743Y5992D01*
X829Y6028D01*
X903Y6085D01*
X960Y6159D01*
X996Y6245D01*
X1008Y6338D01*
X996Y6431D01*
X960Y6517D01*
X903Y6592D01*
X829Y6649D01*
X743Y6684D01*
X650Y6697D01*
X557Y6684D01*
X471Y6649D01*
X397Y6592D01*
X340Y6517D01*
X304Y6431D01*
X300Y6402D01*
X250Y6405D01*
Y7059D01*
X300Y7062D01*
X304Y7033D01*
X340Y6946D01*
X397Y6872D01*
X471Y6815D01*
X557Y6779D01*
X650Y6767D01*
X743Y6779D01*
X829Y6815D01*
X903Y6872D01*
X960Y6946D01*
X996Y7033D01*
X1008Y7126D01*
X996Y7218D01*
X960Y7305D01*
X903Y7379D01*
X829Y7436D01*
X743Y7472D01*
X650Y7484D01*
X557Y7472D01*
X471Y7436D01*
X397Y7379D01*
X340Y7305D01*
X304Y7218D01*
X300Y7189D01*
X250Y7192D01*
Y7846D01*
X300Y7850D01*
X304Y7820D01*
X340Y7734D01*
X397Y7660D01*
X471Y7603D01*
X557Y7567D01*
X650Y7555D01*
X743Y7567D01*
X829Y7603D01*
X903Y7660D01*
X960Y7734D01*
X996Y7820D01*
X1008Y7913D01*
X996Y8006D01*
X960Y8092D01*
X903Y8166D01*
X829Y8223D01*
X743Y8259D01*
X650Y8271D01*
X557Y8259D01*
X471Y8223D01*
X397Y8166D01*
X340Y8092D01*
X304Y8006D01*
X300Y7976D01*
X250Y7980D01*
Y8634D01*
X300Y8637D01*
X304Y8608D01*
X340Y8521D01*
X397Y8447D01*
X471Y8390D01*
X557Y8354D01*
X650Y8342D01*
X743Y8354D01*
X829Y8390D01*
X903Y8447D01*
X960Y8521D01*
X996Y8608D01*
X1008Y8700D01*
X996Y8793D01*
X960Y8880D01*
X903Y8954D01*
X829Y9011D01*
X743Y9047D01*
X650Y9059D01*
X557Y9047D01*
X471Y9011D01*
X397Y8954D01*
X340Y8880D01*
X304Y8793D01*
X300Y8764D01*
X250Y8767D01*
Y9421D01*
X300Y9424D01*
X304Y9395D01*
X340Y9309D01*
X397Y9234D01*
X471Y9177D01*
X557Y9142D01*
X650Y9129D01*
X743Y9142D01*
X829Y9177D01*
X903Y9234D01*
X960Y9309D01*
X996Y9395D01*
X1008Y9488D01*
X996Y9581D01*
X960Y9667D01*
X903Y9741D01*
X829Y9798D01*
X743Y9834D01*
X650Y9846D01*
X557Y9834D01*
X471Y9798D01*
X397Y9741D01*
X340Y9667D01*
X304Y9581D01*
X300Y9551D01*
X250Y9554D01*
Y10209D01*
X300Y10212D01*
X304Y10182D01*
X340Y10096D01*
X397Y10022D01*
X471Y9965D01*
X557Y9929D01*
X650Y9917D01*
X743Y9929D01*
X829Y9965D01*
X903Y10022D01*
X960Y10096D01*
X996Y10182D01*
X1008Y10275D01*
X996Y10368D01*
X960Y10454D01*
X903Y10529D01*
X829Y10586D01*
X743Y10621D01*
X650Y10634D01*
X557Y10621D01*
X471Y10586D01*
X397Y10529D01*
X340Y10454D01*
X304Y10368D01*
X300Y10339D01*
X250Y10342D01*
Y10996D01*
X300Y10999D01*
X304Y10970D01*
D02*
G37*
G36*
X9027Y14700D02*
Y14399D01*
X9033Y14369D01*
X9050Y14344D01*
X9075Y14327D01*
X9105Y14321D01*
X9426D01*
X9456Y14327D01*
X9482Y14344D01*
X9499Y14369D01*
X9505Y14399D01*
Y14438D01*
X9580D01*
X9582Y14428D01*
X9623Y14367D01*
X9685Y14326D01*
X9750Y14313D01*
Y8435D01*
X9704Y8416D01*
X9612Y8508D01*
X9622Y8521D01*
X9658Y8608D01*
X9670Y8700D01*
X9658Y8793D01*
X9622Y8880D01*
X9565Y8954D01*
X9491Y9011D01*
X9404Y9047D01*
X9311Y9059D01*
X9219Y9047D01*
X9132Y9011D01*
X9058Y8954D01*
X9001Y8880D01*
X8965Y8793D01*
X8953Y8700D01*
X8965Y8608D01*
X9001Y8521D01*
X9058Y8447D01*
X9132Y8390D01*
X9219Y8354D01*
X9311Y8342D01*
X9404Y8354D01*
X9435Y8367D01*
X9615Y8187D01*
X9614Y8184D01*
X9583Y8173D01*
X9560Y8170D01*
X9491Y8223D01*
X9404Y8259D01*
X9311Y8271D01*
X9219Y8259D01*
X9132Y8223D01*
X9058Y8166D01*
X9001Y8092D01*
X8965Y8006D01*
X8953Y7913D01*
X8965Y7820D01*
X9001Y7734D01*
X9058Y7660D01*
X9132Y7603D01*
X9219Y7567D01*
X9311Y7555D01*
X9404Y7567D01*
X9491Y7603D01*
X9565Y7660D01*
X9595Y7698D01*
X9645Y7681D01*
Y7357D01*
X9595Y7340D01*
X9565Y7379D01*
X9491Y7436D01*
X9404Y7472D01*
X9311Y7484D01*
X9219Y7472D01*
X9132Y7436D01*
X9058Y7379D01*
X9001Y7305D01*
X8965Y7218D01*
X8953Y7126D01*
X8965Y7033D01*
X9001Y6946D01*
X9058Y6872D01*
X9132Y6815D01*
X9219Y6779D01*
X9311Y6767D01*
X9404Y6779D01*
X9491Y6815D01*
X9565Y6872D01*
X9595Y6911D01*
X9645Y6894D01*
Y6570D01*
X9595Y6553D01*
X9565Y6592D01*
X9491Y6649D01*
X9404Y6684D01*
X9311Y6697D01*
X9219Y6684D01*
X9132Y6649D01*
X9058Y6592D01*
X9001Y6517D01*
X8965Y6431D01*
X8953Y6338D01*
X8965Y6245D01*
X9001Y6159D01*
X9058Y6085D01*
X9132Y6028D01*
X9219Y5992D01*
X9311Y5980D01*
X9404Y5992D01*
X9491Y6028D01*
X9565Y6085D01*
X9595Y6124D01*
X9645Y6107D01*
Y5782D01*
X9595Y5765D01*
X9565Y5804D01*
X9491Y5861D01*
X9404Y5897D01*
X9311Y5909D01*
X9219Y5897D01*
X9132Y5861D01*
X9058Y5804D01*
X9001Y5730D01*
X8965Y5644D01*
X8953Y5551D01*
X8965Y5458D01*
X8993Y5391D01*
X8721Y5119D01*
X8696Y5082D01*
X8688Y5039D01*
X8688Y5039D01*
Y4296D01*
X6492Y2101D01*
X6446Y2120D01*
Y2809D01*
X6411D01*
Y4080D01*
X6814Y4484D01*
X6851Y4480D01*
X6864Y4478D01*
X6880Y4454D01*
X6905Y4437D01*
X6935Y4431D01*
X7376D01*
X7406Y4437D01*
X7431Y4454D01*
X7447Y4479D01*
X7453Y4508D01*
Y4792D01*
X7447Y4821D01*
X7436Y4838D01*
X7446Y4869D01*
X7458Y4888D01*
X7542D01*
X7554Y4869D01*
X7564Y4838D01*
X7553Y4821D01*
X7547Y4792D01*
Y4508D01*
X7553Y4479D01*
X7569Y4454D01*
X7594Y4437D01*
X7624Y4431D01*
X8065D01*
X8089Y4436D01*
X8300D01*
X8382Y4452D01*
X8451Y4499D01*
X8498Y4568D01*
X8514Y4650D01*
X8498Y4732D01*
X8451Y4801D01*
X8382Y4848D01*
X8300Y4864D01*
X8089D01*
X8065Y4869D01*
X7892D01*
X7877Y4919D01*
X7879Y4921D01*
X7953Y4995D01*
X7978Y5031D01*
X7986Y5074D01*
X8024Y5101D01*
X8052D01*
Y5654D01*
X7696D01*
X7663Y5691D01*
Y5711D01*
X7674Y5728D01*
X7689Y5800D01*
X7674Y5872D01*
X7633Y5933D01*
X7572Y5974D01*
X7500Y5989D01*
X7428Y5974D01*
X7367Y5933D01*
X7326Y5872D01*
X7311Y5800D01*
X7326Y5728D01*
X7337Y5711D01*
Y5691D01*
X7304Y5654D01*
X6948D01*
Y5101D01*
X6963D01*
Y4869D01*
X6935D01*
X6905Y4863D01*
X6880Y4846D01*
X6864Y4821D01*
X6862Y4813D01*
X6750D01*
X6688Y4801D01*
X6635Y4765D01*
X6133Y4263D01*
X6097Y4210D01*
X6085Y4148D01*
Y3457D01*
X6035Y3430D01*
X5988Y3462D01*
X5950Y3469D01*
Y3250D01*
X5900D01*
Y3200D01*
X5681D01*
X5681Y3198D01*
X5635Y3174D01*
X1587Y7221D01*
Y10186D01*
X1633Y10217D01*
X1674Y10278D01*
X1684Y10325D01*
X1729Y10371D01*
X1729Y10371D01*
X1754Y10407D01*
X1762Y10450D01*
Y12086D01*
X2062Y12387D01*
X2249D01*
X2279Y12392D01*
X2304Y12409D01*
X2321Y12435D01*
X2327Y12465D01*
Y12766D01*
X2321Y12796D01*
X2304Y12821D01*
X2279Y12838D01*
X2249Y12844D01*
X1928D01*
X1898Y12838D01*
X1873Y12821D01*
X1856Y12796D01*
X1850Y12766D01*
Y12492D01*
X1612Y12254D01*
X1562Y12274D01*
Y12388D01*
X1585Y12392D01*
X1610Y12409D01*
X1627Y12435D01*
X1633Y12465D01*
Y12766D01*
X1627Y12796D01*
X1610Y12821D01*
X1585Y12838D01*
X1555Y12844D01*
X1234D01*
X1204Y12838D01*
X1179Y12821D01*
X1162Y12796D01*
X1156Y12766D01*
Y12465D01*
X1162Y12435D01*
X1179Y12409D01*
X1204Y12392D01*
X1234Y12387D01*
X1338D01*
Y11396D01*
X1188Y11246D01*
X1163Y11251D01*
X1090Y11237D01*
X1033Y11198D01*
X1027Y11196D01*
X975Y11205D01*
X960Y11242D01*
X903Y11316D01*
X829Y11373D01*
X752Y11405D01*
X762Y11455D01*
X1045D01*
Y11800D01*
X650D01*
Y11850D01*
X600D01*
Y12245D01*
X255Y12245D01*
X250Y12293D01*
Y12418D01*
X300Y12444D01*
X328Y12426D01*
X400Y12411D01*
X407Y12413D01*
X465Y12401D01*
X497D01*
X510Y12392D01*
X540Y12387D01*
X860D01*
X890Y12392D01*
X916Y12409D01*
X933Y12435D01*
X939Y12465D01*
Y12766D01*
X933Y12796D01*
X916Y12821D01*
X890Y12838D01*
X860Y12844D01*
X540D01*
X510Y12838D01*
X497Y12829D01*
X465D01*
X383Y12813D01*
X314Y12767D01*
X312Y12764D01*
X300Y12756D01*
X250Y12782D01*
Y14368D01*
X285Y14396D01*
X357Y14410D01*
X418Y14451D01*
X423Y14458D01*
X473Y14443D01*
Y14399D01*
X479Y14369D01*
X496Y14344D01*
X521Y14327D01*
X551Y14321D01*
X872D01*
X902Y14327D01*
X927Y14344D01*
X944Y14369D01*
X950Y14399D01*
Y14700D01*
X986Y14750D01*
X1085D01*
X1126Y14700D01*
Y14600D01*
X1685D01*
Y14700D01*
X1726Y14750D01*
X1779D01*
X1821Y14700D01*
Y14600D01*
X2379D01*
Y14700D01*
X2421Y14750D01*
X8287D01*
X8323Y14700D01*
X8321Y14685D01*
Y14585D01*
X8879D01*
Y14685D01*
X8877Y14700D01*
X8913Y14750D01*
X8991D01*
X9027Y14700D01*
D02*
G37*
%LPC*%
G36*
X7344Y6639D02*
X7176D01*
Y6372D01*
X7344D01*
Y6639D01*
D02*
G37*
G36*
X7106Y7050D02*
X6817D01*
Y6958D01*
X6826Y6913D01*
X6852Y6875D01*
X6890Y6849D01*
X6935Y6840D01*
X7106D01*
Y7050D01*
D02*
G37*
G36*
X8052Y6599D02*
X7696D01*
Y6046D01*
X8052D01*
Y6599D01*
D02*
G37*
G36*
X7076Y6639D02*
X6908D01*
Y6372D01*
X7076D01*
Y6639D01*
D02*
G37*
G36*
X7494Y7050D02*
X7206D01*
Y6840D01*
X7376D01*
X7421Y6849D01*
X7459Y6875D01*
X7485Y6913D01*
X7494Y6958D01*
Y7050D01*
D02*
G37*
G36*
X7376Y7360D02*
X7206D01*
Y7150D01*
X7494D01*
Y7242D01*
X7485Y7287D01*
X7459Y7325D01*
X7421Y7351D01*
X7376Y7360D01*
D02*
G37*
G36*
X9311Y9846D02*
X9219Y9834D01*
X9132Y9798D01*
X9058Y9741D01*
X9001Y9667D01*
X8965Y9581D01*
X8953Y9488D01*
X8965Y9395D01*
X9001Y9309D01*
X9058Y9234D01*
X9132Y9177D01*
X9219Y9142D01*
X9311Y9129D01*
X9404Y9142D01*
X9491Y9177D01*
X9565Y9234D01*
X9622Y9309D01*
X9658Y9395D01*
X9670Y9488D01*
X9658Y9581D01*
X9622Y9667D01*
X9565Y9741D01*
X9491Y9798D01*
X9404Y9834D01*
X9311Y9846D01*
D02*
G37*
G36*
X8065Y7319D02*
X7624D01*
X7594Y7313D01*
X7569Y7296D01*
X7553Y7271D01*
X7547Y7242D01*
Y6958D01*
X7553Y6929D01*
X7569Y6904D01*
X7594Y6887D01*
X7624Y6881D01*
X8065D01*
X8089Y6886D01*
X8350D01*
X8432Y6902D01*
X8501Y6949D01*
X8548Y7018D01*
X8564Y7100D01*
X8548Y7182D01*
X8501Y7251D01*
X8432Y7298D01*
X8350Y7314D01*
X8089D01*
X8065Y7319D01*
D02*
G37*
G36*
X7106Y7360D02*
X6935D01*
X6890Y7351D01*
X6852Y7325D01*
X6826Y7287D01*
X6817Y7242D01*
Y7150D01*
X7106D01*
Y7360D01*
D02*
G37*
G36*
X4350Y3200D02*
X4181D01*
X4188Y3162D01*
X4238Y3088D01*
X4312Y3038D01*
X4350Y3031D01*
Y3200D01*
D02*
G37*
G36*
X4619D02*
X4450D01*
Y3031D01*
X4488Y3038D01*
X4562Y3088D01*
X4612Y3162D01*
X4619Y3200D01*
D02*
G37*
G36*
X3787Y3226D02*
X3715Y3212D01*
X3654Y3171D01*
X3613Y3110D01*
X3599Y3037D01*
X3613Y2965D01*
X3624Y2949D01*
Y2889D01*
X3613Y2872D01*
X3601Y2809D01*
X3590D01*
Y1981D01*
X3985D01*
Y2809D01*
X3974D01*
X3962Y2872D01*
X3951Y2889D01*
Y2949D01*
X3962Y2965D01*
X3976Y3037D01*
X3962Y3110D01*
X3921Y3171D01*
X3860Y3212D01*
X3787Y3226D01*
D02*
G37*
G36*
X3225Y1593D02*
X2475D01*
Y607D01*
X3225D01*
Y1593D01*
D02*
G37*
G36*
X7536D02*
X6786D01*
Y607D01*
X7536D01*
Y1593D01*
D02*
G37*
G36*
X7076Y6272D02*
X6908D01*
Y6006D01*
X7076D01*
Y6272D01*
D02*
G37*
G36*
X7344D02*
X7176D01*
Y6006D01*
X7344D01*
Y6272D01*
D02*
G37*
G36*
X5850Y3469D02*
X5812Y3462D01*
X5738Y3412D01*
X5688Y3338D01*
X5681Y3300D01*
X5850D01*
Y3469D01*
D02*
G37*
G36*
X4350D02*
X4312Y3462D01*
X4238Y3412D01*
X4188Y3338D01*
X4181Y3300D01*
X4350D01*
Y3469D01*
D02*
G37*
G36*
X4450D02*
Y3300D01*
X4619D01*
X4612Y3338D01*
X4562Y3412D01*
X4488Y3462D01*
X4450Y3469D01*
D02*
G37*
G36*
X9311Y10634D02*
X9219Y10621D01*
X9132Y10586D01*
X9058Y10529D01*
X9001Y10454D01*
X8965Y10368D01*
X8953Y10275D01*
X8965Y10182D01*
X9001Y10096D01*
X9058Y10022D01*
X9132Y9965D01*
X9219Y9929D01*
X9311Y9917D01*
X9404Y9929D01*
X9491Y9965D01*
X9565Y10022D01*
X9622Y10096D01*
X9658Y10182D01*
X9670Y10275D01*
X9658Y10368D01*
X9622Y10454D01*
X9565Y10529D01*
X9491Y10586D01*
X9404Y10621D01*
X9311Y10634D01*
D02*
G37*
G36*
X9426Y14109D02*
X9105D01*
X9075Y14103D01*
X9050Y14086D01*
X9033Y14061D01*
X9027Y14031D01*
Y13730D01*
X9033Y13700D01*
X9050Y13675D01*
X9075Y13658D01*
X9105Y13652D01*
X9154D01*
Y13579D01*
X9105D01*
X9075Y13573D01*
X9050Y13556D01*
X9033Y13530D01*
X9027Y13500D01*
Y13199D01*
X9033Y13169D01*
X9050Y13144D01*
X9075Y13127D01*
X9105Y13121D01*
X9426D01*
X9456Y13127D01*
X9482Y13144D01*
X9499Y13169D01*
X9505Y13199D01*
Y13500D01*
X9499Y13530D01*
X9482Y13556D01*
X9456Y13573D01*
X9426Y13579D01*
X9378D01*
Y13652D01*
X9426D01*
X9456Y13658D01*
X9482Y13675D01*
X9499Y13700D01*
X9505Y13730D01*
Y14031D01*
X9499Y14061D01*
X9482Y14086D01*
X9456Y14103D01*
X9426Y14109D01*
D02*
G37*
G36*
X8550Y14485D02*
X8321D01*
Y14384D01*
X8330Y14339D01*
X8355Y14300D01*
X8394Y14274D01*
X8440Y14265D01*
X8550D01*
Y14485D01*
D02*
G37*
G36*
X8760Y14094D02*
X8440D01*
X8410Y14088D01*
X8384Y14071D01*
X8367Y14046D01*
X8361Y14016D01*
Y13715D01*
X8367Y13685D01*
X8384Y13659D01*
X8410Y13642D01*
X8440Y13637D01*
X8488D01*
Y13579D01*
X8440D01*
X8410Y13573D01*
X8384Y13556D01*
X8367Y13530D01*
X8361Y13500D01*
Y13199D01*
X8367Y13169D01*
X8384Y13144D01*
X8410Y13127D01*
X8440Y13121D01*
X8760D01*
X8790Y13127D01*
X8816Y13144D01*
X8833Y13169D01*
X8839Y13199D01*
Y13500D01*
X8833Y13530D01*
X8816Y13556D01*
X8790Y13573D01*
X8760Y13579D01*
X8712D01*
Y13637D01*
X8760D01*
X8790Y13642D01*
X8816Y13659D01*
X8833Y13685D01*
X8839Y13715D01*
Y14016D01*
X8833Y14046D01*
X8816Y14071D01*
X8790Y14088D01*
X8760Y14094D01*
D02*
G37*
G36*
X1566Y14109D02*
X1245D01*
X1215Y14103D01*
X1190Y14086D01*
X1173Y14061D01*
X1167Y14031D01*
Y13730D01*
X1173Y13700D01*
X1190Y13675D01*
X1215Y13658D01*
X1245Y13652D01*
X1338D01*
Y13513D01*
X1234D01*
X1204Y13508D01*
X1179Y13491D01*
X1162Y13465D01*
X1156Y13435D01*
Y13134D01*
X1162Y13104D01*
X1179Y13079D01*
X1204Y13062D01*
X1234Y13056D01*
X1555D01*
X1585Y13062D01*
X1610Y13079D01*
X1627Y13104D01*
X1633Y13134D01*
Y13435D01*
X1627Y13465D01*
X1610Y13491D01*
X1585Y13508D01*
X1562Y13512D01*
Y13652D01*
X1566D01*
X1596Y13658D01*
X1621Y13675D01*
X1638Y13700D01*
X1644Y13730D01*
Y14031D01*
X1638Y14061D01*
X1621Y14086D01*
X1596Y14103D01*
X1566Y14109D01*
D02*
G37*
G36*
X2260D02*
X1940D01*
X1910Y14103D01*
X1884Y14086D01*
X1867Y14061D01*
X1861Y14031D01*
Y13730D01*
X1867Y13700D01*
X1884Y13675D01*
X1910Y13658D01*
X1940Y13652D01*
X1988D01*
Y13513D01*
X1928D01*
X1898Y13508D01*
X1873Y13491D01*
X1856Y13465D01*
X1850Y13435D01*
Y13134D01*
X1856Y13104D01*
X1873Y13079D01*
X1898Y13062D01*
X1928Y13056D01*
X2249D01*
X2279Y13062D01*
X2304Y13079D01*
X2321Y13104D01*
X2327Y13134D01*
Y13435D01*
X2321Y13465D01*
X2304Y13491D01*
X2279Y13508D01*
X2249Y13513D01*
X2212D01*
Y13652D01*
X2260D01*
X2290Y13658D01*
X2316Y13675D01*
X2333Y13700D01*
X2339Y13730D01*
Y14031D01*
X2333Y14061D01*
X2316Y14086D01*
X2290Y14103D01*
X2260Y14109D01*
D02*
G37*
G36*
X2050Y14500D02*
X1821D01*
Y14399D01*
X1830Y14354D01*
X1855Y14315D01*
X1894Y14289D01*
X1940Y14280D01*
X2050D01*
Y14500D01*
D02*
G37*
G36*
X2379D02*
X2150D01*
Y14280D01*
X2260D01*
X2306Y14289D01*
X2345Y14315D01*
X2370Y14354D01*
X2379Y14399D01*
Y14500D01*
D02*
G37*
G36*
X1685D02*
X1456D01*
Y14280D01*
X1566D01*
X1612Y14289D01*
X1650Y14315D01*
X1676Y14354D01*
X1685Y14399D01*
Y14500D01*
D02*
G37*
G36*
X8879Y14485D02*
X8650D01*
Y14265D01*
X8760D01*
X8806Y14274D01*
X8845Y14300D01*
X8870Y14339D01*
X8879Y14384D01*
Y14485D01*
D02*
G37*
G36*
X1356Y14500D02*
X1126D01*
Y14399D01*
X1135Y14354D01*
X1161Y14315D01*
X1200Y14289D01*
X1245Y14280D01*
X1356D01*
Y14500D01*
D02*
G37*
G36*
X2388Y11750D02*
X2218D01*
Y11581D01*
X2256Y11588D01*
X2331Y11638D01*
X2380Y11712D01*
X2388Y11750D01*
D02*
G37*
G36*
X2118Y12019D02*
X2081Y12012D01*
X2006Y11962D01*
X1957Y11888D01*
X1949Y11850D01*
X2118D01*
Y12019D01*
D02*
G37*
G36*
Y11750D02*
X1949D01*
X1957Y11712D01*
X2006Y11638D01*
X2081Y11588D01*
X2118Y11581D01*
Y11750D01*
D02*
G37*
G36*
X9311Y11421D02*
X9219Y11409D01*
X9132Y11373D01*
X9058Y11316D01*
X9001Y11242D01*
X8965Y11155D01*
X8953Y11063D01*
X8965Y10970D01*
X9001Y10883D01*
X9058Y10809D01*
X9132Y10752D01*
X9219Y10716D01*
X9311Y10704D01*
X9404Y10716D01*
X9491Y10752D01*
X9565Y10809D01*
X9622Y10883D01*
X9658Y10970D01*
X9670Y11063D01*
X9658Y11155D01*
X9622Y11242D01*
X9565Y11316D01*
X9491Y11373D01*
X9404Y11409D01*
X9311Y11421D01*
D02*
G37*
G36*
Y12208D02*
X9219Y12196D01*
X9132Y12160D01*
X9058Y12103D01*
X9001Y12029D01*
X8965Y11943D01*
X8953Y11850D01*
X8965Y11757D01*
X9001Y11671D01*
X9058Y11597D01*
X9132Y11540D01*
X9219Y11504D01*
X9311Y11492D01*
X9404Y11504D01*
X9491Y11540D01*
X9565Y11597D01*
X9622Y11671D01*
X9658Y11757D01*
X9670Y11850D01*
X9658Y11943D01*
X9622Y12029D01*
X9565Y12103D01*
X9491Y12160D01*
X9404Y12196D01*
X9311Y12208D01*
D02*
G37*
G36*
X9426Y12909D02*
X9105D01*
X9075Y12903D01*
X9062Y12895D01*
X8803D01*
X8790Y12903D01*
X8760Y12909D01*
X8440D01*
X8410Y12903D01*
X8384Y12886D01*
X8367Y12861D01*
X8361Y12831D01*
Y12530D01*
X8367Y12500D01*
X8384Y12475D01*
X8410Y12458D01*
X8440Y12452D01*
X8760D01*
X8790Y12458D01*
X8803Y12466D01*
X9062D01*
X9075Y12458D01*
X9105Y12452D01*
X9426D01*
X9456Y12458D01*
X9482Y12475D01*
X9499Y12500D01*
X9505Y12530D01*
Y12831D01*
X9499Y12861D01*
X9482Y12886D01*
X9456Y12903D01*
X9426Y12909D01*
D02*
G37*
G36*
X872Y14109D02*
X551D01*
X521Y14103D01*
X496Y14086D01*
X479Y14061D01*
X473Y14031D01*
Y13730D01*
X479Y13700D01*
X496Y13675D01*
X521Y13658D01*
X551Y13652D01*
X638D01*
Y13513D01*
X540D01*
X510Y13508D01*
X484Y13491D01*
X467Y13465D01*
X461Y13435D01*
Y13134D01*
X467Y13104D01*
X484Y13079D01*
X510Y13062D01*
X540Y13056D01*
X860D01*
X890Y13062D01*
X916Y13079D01*
X933Y13104D01*
X939Y13134D01*
Y13435D01*
X933Y13465D01*
X916Y13491D01*
X890Y13508D01*
X862Y13513D01*
Y13652D01*
X872D01*
X902Y13658D01*
X927Y13675D01*
X944Y13700D01*
X950Y13730D01*
Y14031D01*
X944Y14061D01*
X927Y14086D01*
X902Y14103D01*
X872Y14109D01*
D02*
G37*
G36*
X5000Y14597D02*
X4836Y14585D01*
X4676Y14546D01*
X4524Y14483D01*
X4384Y14397D01*
X4259Y14291D01*
X4153Y14166D01*
X4067Y14026D01*
X4004Y13874D01*
X3965Y13714D01*
X3953Y13550D01*
X3965Y13386D01*
X4004Y13226D01*
X4067Y13074D01*
X4153Y12934D01*
X4259Y12809D01*
X4384Y12703D01*
X4524Y12617D01*
X4676Y12554D01*
X4836Y12515D01*
X5000Y12503D01*
X5164Y12515D01*
X5324Y12554D01*
X5476Y12617D01*
X5616Y12703D01*
X5741Y12809D01*
X5847Y12934D01*
X5933Y13074D01*
X5996Y13226D01*
X6035Y13386D01*
X6047Y13550D01*
X6035Y13714D01*
X5996Y13874D01*
X5933Y14026D01*
X5847Y14166D01*
X5741Y14291D01*
X5616Y14397D01*
X5476Y14483D01*
X5324Y14546D01*
X5164Y14585D01*
X5000Y14597D01*
D02*
G37*
G36*
X2218Y12019D02*
Y11850D01*
X2388D01*
X2380Y11888D01*
X2331Y11962D01*
X2256Y12012D01*
X2218Y12019D01*
D02*
G37*
G36*
X700Y12245D02*
Y11900D01*
X1045D01*
Y12245D01*
X700D01*
D02*
G37*
%LPD*%
D10*
X7156Y7100D02*
D03*
X7844D02*
D03*
X7156Y4650D02*
D03*
X7844D02*
D03*
D11*
X7126Y5378D02*
D03*
X7500D02*
D03*
X7874D02*
D03*
Y6322D02*
D03*
X7126D02*
D03*
D12*
X700Y12615D02*
D03*
Y13285D02*
D03*
X1394Y12615D02*
D03*
Y13285D02*
D03*
X2089Y12615D02*
D03*
Y13285D02*
D03*
X9266Y12680D02*
D03*
Y13350D02*
D03*
X8600Y12680D02*
D03*
Y13350D02*
D03*
Y13865D02*
D03*
Y14535D02*
D03*
X2100Y13880D02*
D03*
Y14550D02*
D03*
X1406Y13880D02*
D03*
Y14550D02*
D03*
X711Y13880D02*
D03*
Y14550D02*
D03*
X9266Y13880D02*
D03*
Y14550D02*
D03*
D13*
X6248Y2395D02*
D03*
X5756D02*
D03*
X5264D02*
D03*
X4772D02*
D03*
X4280D02*
D03*
X3787D02*
D03*
D14*
X7126Y5000D02*
Y5378D01*
Y4680D02*
Y5000D01*
X6750Y4650D02*
X7156D01*
X6248Y4148D02*
X6750Y4650D01*
X6248Y2395D02*
Y4148D01*
X7126Y4680D02*
X7156Y4650D01*
X7500Y5378D02*
Y5800D01*
X3787Y2395D02*
Y3037D01*
D15*
X7126Y5000D02*
X7800D01*
X7874Y5074D01*
Y5378D01*
X6461Y1628D02*
X9151Y4318D01*
X9496D01*
X9757Y4579D01*
Y8204D01*
X9311Y8649D02*
X9757Y8204D01*
X9311Y8649D02*
Y8700D01*
X750Y13965D02*
X765Y13950D01*
X285Y14585D02*
X750D01*
X6378Y1828D02*
X8800Y4250D01*
Y5039D01*
X9311Y5551D01*
X4872Y1828D02*
X6378D01*
X4722Y1978D02*
X4872Y1828D01*
X4722Y1978D02*
Y2395D01*
X4250Y1950D02*
Y2274D01*
Y1950D02*
X4572Y1628D01*
X6461D01*
X5756Y2395D02*
Y2894D01*
X5250Y2395D02*
Y3100D01*
X1250Y7100D02*
X5250Y3100D01*
X1475Y7175D02*
X5756Y2894D01*
X1475Y7175D02*
Y10275D01*
X9707Y14550D02*
X9757Y14500D01*
X9266Y14550D02*
X9707D01*
X2100Y13252D02*
Y13848D01*
X1450Y13250D02*
Y13846D01*
X750Y13285D02*
Y13880D01*
X9266Y13350D02*
Y13880D01*
X1163Y11063D02*
X1450Y11350D01*
Y12581D01*
X1475Y10275D02*
X1650Y10450D01*
Y12133D01*
X2100Y12583D01*
X1250Y7100D02*
Y10950D01*
X1137Y11063D02*
X1163D01*
X1137D02*
X1250Y10950D01*
X8600Y13350D02*
Y13865D01*
X450Y12600D02*
X465Y12615D01*
D16*
X7844Y4650D02*
X8300D01*
X7844Y7100D02*
X8350D01*
X8600Y12680D02*
X9266D01*
X465Y12615D02*
X700D01*
D17*
X650Y11850D02*
D03*
D18*
Y11063D02*
D03*
Y10275D02*
D03*
Y9488D02*
D03*
Y8700D02*
D03*
Y7913D02*
D03*
Y7126D02*
D03*
Y6338D02*
D03*
Y5551D02*
D03*
Y4763D02*
D03*
X9311D02*
D03*
Y5551D02*
D03*
Y6338D02*
D03*
Y7126D02*
D03*
Y7913D02*
D03*
Y8700D02*
D03*
Y9488D02*
D03*
Y10275D02*
D03*
Y11063D02*
D03*
Y11850D02*
D03*
D19*
X1100Y1450D02*
D03*
X8950D02*
D03*
X5000Y13550D02*
D03*
D20*
X2850Y1100D02*
D03*
X7161D02*
D03*
D21*
X5900Y3250D02*
D03*
X7500Y5800D02*
D03*
X8300Y4650D02*
D03*
X8350Y7100D02*
D03*
X3787Y3037D02*
D03*
X285Y14585D02*
D03*
X3787Y2800D02*
D03*
X9757Y14500D02*
D03*
X2168Y11800D02*
D03*
X4400Y3250D02*
D03*
X1163Y11063D02*
D03*
X1500Y10350D02*
D03*
X400Y12600D02*
D03*
X8933Y12680D02*
D03*
M02*
