G04 Layer_Physical_Order=2*
G04 Layer_Color=16711680*
%FSLAX24Y24*%
%MOIN*%
G70*
G01*
G75*
%ADD15C,0.0100*%
%ADD17R,0.0591X0.0591*%
%ADD18C,0.0591*%
%ADD19C,0.1969*%
%ADD21C,0.0250*%
%ADD22C,0.0500*%
G36*
X9750Y14687D02*
X9685Y14674D01*
X9623Y14633D01*
X9582Y14572D01*
X9568Y14500D01*
X9582Y14428D01*
X9623Y14367D01*
X9645Y14352D01*
Y12082D01*
X9595Y12065D01*
X9565Y12103D01*
X9491Y12160D01*
X9404Y12196D01*
X9311Y12208D01*
X9219Y12196D01*
X9132Y12160D01*
X9058Y12103D01*
X9001Y12029D01*
X8965Y11943D01*
X8953Y11850D01*
X8965Y11757D01*
X9001Y11671D01*
X9058Y11597D01*
X9132Y11540D01*
X9219Y11504D01*
X9311Y11492D01*
X9404Y11504D01*
X9491Y11540D01*
X9565Y11597D01*
X9595Y11635D01*
X9645Y11618D01*
Y11294D01*
X9595Y11277D01*
X9565Y11316D01*
X9491Y11373D01*
X9404Y11409D01*
X9311Y11421D01*
X9219Y11409D01*
X9132Y11373D01*
X9058Y11316D01*
X9001Y11242D01*
X8965Y11155D01*
X8953Y11063D01*
X8965Y10970D01*
X9001Y10883D01*
X9058Y10809D01*
X9132Y10752D01*
X9219Y10716D01*
X9311Y10704D01*
X9404Y10716D01*
X9491Y10752D01*
X9565Y10809D01*
X9595Y10848D01*
X9645Y10831D01*
Y10507D01*
X9595Y10490D01*
X9565Y10529D01*
X9491Y10586D01*
X9404Y10621D01*
X9311Y10634D01*
X9219Y10621D01*
X9132Y10586D01*
X9058Y10529D01*
X9001Y10454D01*
X8965Y10368D01*
X8953Y10275D01*
X8965Y10182D01*
X9001Y10096D01*
X9058Y10022D01*
X9132Y9965D01*
X9219Y9929D01*
X9311Y9917D01*
X9404Y9929D01*
X9491Y9965D01*
X9565Y10022D01*
X9595Y10061D01*
X9645Y10044D01*
Y9719D01*
X9595Y9702D01*
X9565Y9741D01*
X9491Y9798D01*
X9404Y9834D01*
X9311Y9846D01*
X9219Y9834D01*
X9132Y9798D01*
X9058Y9741D01*
X9001Y9667D01*
X8965Y9581D01*
X8953Y9488D01*
X8965Y9395D01*
X9001Y9309D01*
X9058Y9234D01*
X9132Y9177D01*
X9219Y9142D01*
X9311Y9129D01*
X9404Y9142D01*
X9491Y9177D01*
X9565Y9234D01*
X9595Y9273D01*
X9645Y9256D01*
Y8932D01*
X9595Y8915D01*
X9565Y8954D01*
X9491Y9011D01*
X9404Y9047D01*
X9311Y9059D01*
X9219Y9047D01*
X9132Y9011D01*
X9058Y8954D01*
X9001Y8880D01*
X8965Y8793D01*
X8953Y8700D01*
X8965Y8608D01*
X9001Y8521D01*
X9058Y8447D01*
X9132Y8390D01*
X9219Y8354D01*
X9311Y8342D01*
X9404Y8354D01*
X9491Y8390D01*
X9565Y8447D01*
X9595Y8486D01*
X9645Y8469D01*
Y8405D01*
X9471Y8231D01*
X9404Y8259D01*
X9311Y8271D01*
X9219Y8259D01*
X9132Y8223D01*
X9058Y8166D01*
X9001Y8092D01*
X8965Y8006D01*
X8953Y7913D01*
X8965Y7820D01*
X9001Y7734D01*
X9058Y7660D01*
X9132Y7603D01*
X9219Y7567D01*
X9311Y7555D01*
X9404Y7567D01*
X9491Y7603D01*
X9565Y7660D01*
X9622Y7734D01*
X9658Y7820D01*
X9670Y7913D01*
X9658Y8006D01*
X9630Y8073D01*
X9704Y8147D01*
X9750Y8128D01*
Y2258D01*
X9700Y2235D01*
X9589Y2330D01*
X9444Y2419D01*
X9286Y2484D01*
X9120Y2524D01*
X9000Y2534D01*
Y1450D01*
Y366D01*
X9120Y376D01*
X9286Y416D01*
X9444Y481D01*
X9589Y570D01*
X9700Y665D01*
X9750Y642D01*
Y250D01*
X250D01*
Y703D01*
X297Y721D01*
X331Y681D01*
X461Y570D01*
X606Y481D01*
X764Y416D01*
X930Y376D01*
X1050Y366D01*
Y1450D01*
Y2534D01*
X930Y2524D01*
X764Y2484D01*
X606Y2419D01*
X461Y2330D01*
X331Y2219D01*
X297Y2179D01*
X250Y2197D01*
Y4566D01*
X300Y4575D01*
X305Y4564D01*
X368Y4481D01*
X451Y4418D01*
X547Y4378D01*
X600Y4371D01*
Y4763D01*
X650D01*
Y4813D01*
X1042D01*
X1035Y4867D01*
X995Y4963D01*
X932Y5045D01*
X849Y5109D01*
X753Y5148D01*
X726Y5152D01*
Y5202D01*
X743Y5205D01*
X829Y5240D01*
X903Y5297D01*
X960Y5372D01*
X996Y5458D01*
X1008Y5551D01*
X996Y5644D01*
X960Y5730D01*
X903Y5804D01*
X829Y5861D01*
X743Y5897D01*
X650Y5909D01*
X557Y5897D01*
X471Y5861D01*
X397Y5804D01*
X340Y5730D01*
X304Y5644D01*
X300Y5614D01*
X250Y5617D01*
Y6272D01*
X300Y6275D01*
X304Y6245D01*
X340Y6159D01*
X397Y6085D01*
X471Y6028D01*
X557Y5992D01*
X650Y5980D01*
X743Y5992D01*
X829Y6028D01*
X903Y6085D01*
X960Y6159D01*
X996Y6245D01*
X1008Y6338D01*
X996Y6431D01*
X960Y6517D01*
X903Y6592D01*
X829Y6649D01*
X743Y6684D01*
X650Y6697D01*
X557Y6684D01*
X471Y6649D01*
X397Y6592D01*
X340Y6517D01*
X304Y6431D01*
X300Y6402D01*
X250Y6405D01*
Y7059D01*
X300Y7062D01*
X304Y7033D01*
X340Y6946D01*
X397Y6872D01*
X471Y6815D01*
X557Y6779D01*
X650Y6767D01*
X743Y6779D01*
X829Y6815D01*
X903Y6872D01*
X960Y6946D01*
X996Y7033D01*
X1008Y7126D01*
X996Y7218D01*
X960Y7305D01*
X903Y7379D01*
X829Y7436D01*
X743Y7472D01*
X650Y7484D01*
X557Y7472D01*
X471Y7436D01*
X397Y7379D01*
X340Y7305D01*
X304Y7218D01*
X300Y7189D01*
X250Y7192D01*
Y7846D01*
X300Y7850D01*
X304Y7820D01*
X340Y7734D01*
X397Y7660D01*
X471Y7603D01*
X557Y7567D01*
X650Y7555D01*
X743Y7567D01*
X829Y7603D01*
X903Y7660D01*
X960Y7734D01*
X996Y7820D01*
X1008Y7913D01*
X996Y8006D01*
X960Y8092D01*
X903Y8166D01*
X829Y8223D01*
X743Y8259D01*
X650Y8271D01*
X557Y8259D01*
X490Y8231D01*
X262Y8459D01*
Y8578D01*
X312Y8588D01*
X340Y8521D01*
X397Y8447D01*
X471Y8390D01*
X557Y8354D01*
X650Y8342D01*
X743Y8354D01*
X829Y8390D01*
X903Y8447D01*
X960Y8521D01*
X996Y8608D01*
X1008Y8700D01*
X996Y8793D01*
X960Y8880D01*
X903Y8954D01*
X829Y9011D01*
X743Y9047D01*
X650Y9059D01*
X557Y9047D01*
X471Y9011D01*
X397Y8954D01*
X340Y8880D01*
X312Y8813D01*
X262Y8823D01*
Y9365D01*
X312Y9375D01*
X340Y9309D01*
X397Y9234D01*
X471Y9177D01*
X557Y9142D01*
X650Y9129D01*
X743Y9142D01*
X829Y9177D01*
X903Y9234D01*
X960Y9309D01*
X996Y9395D01*
X1008Y9488D01*
X996Y9581D01*
X960Y9667D01*
X903Y9741D01*
X829Y9798D01*
X743Y9834D01*
X650Y9846D01*
X557Y9834D01*
X471Y9798D01*
X397Y9741D01*
X340Y9667D01*
X312Y9601D01*
X262Y9610D01*
Y10152D01*
X312Y10162D01*
X340Y10096D01*
X397Y10022D01*
X471Y9965D01*
X557Y9929D01*
X650Y9917D01*
X743Y9929D01*
X829Y9965D01*
X903Y10022D01*
X960Y10096D01*
X996Y10182D01*
X1003Y10238D01*
X1352D01*
X1367Y10217D01*
X1428Y10176D01*
X1500Y10161D01*
X1572Y10176D01*
X1633Y10217D01*
X1674Y10278D01*
X1689Y10350D01*
X1674Y10422D01*
X1633Y10483D01*
X1572Y10524D01*
X1500Y10539D01*
X1428Y10524D01*
X1367Y10483D01*
X1352Y10462D01*
X954D01*
X903Y10529D01*
X829Y10586D01*
X743Y10621D01*
X650Y10634D01*
X557Y10621D01*
X471Y10586D01*
X397Y10529D01*
X340Y10454D01*
X312Y10388D01*
X262Y10398D01*
Y10940D01*
X312Y10950D01*
X340Y10883D01*
X397Y10809D01*
X471Y10752D01*
X557Y10716D01*
X650Y10704D01*
X743Y10716D01*
X829Y10752D01*
X903Y10809D01*
X960Y10883D01*
X975Y10920D01*
X1027Y10929D01*
X1033Y10927D01*
X1090Y10888D01*
X1163Y10874D01*
X1235Y10888D01*
X1296Y10929D01*
X1337Y10990D01*
X1351Y11063D01*
X1337Y11135D01*
X1296Y11196D01*
X1235Y11237D01*
X1163Y11251D01*
X1090Y11237D01*
X1033Y11198D01*
X1027Y11196D01*
X975Y11205D01*
X960Y11242D01*
X903Y11316D01*
X829Y11373D01*
X743Y11409D01*
X650Y11421D01*
X557Y11409D01*
X471Y11373D01*
X397Y11316D01*
X340Y11242D01*
X312Y11175D01*
X262Y11185D01*
Y11458D01*
X295Y11495D01*
X312Y11495D01*
X644D01*
X700Y11487D01*
X700Y11487D01*
X2168D01*
X2249Y11498D01*
X2325Y11529D01*
X2390Y11579D01*
X2439Y11644D01*
X2471Y11719D01*
X2481Y11800D01*
X2471Y11881D01*
X2439Y11956D01*
X2390Y12021D01*
X2325Y12071D01*
X2249Y12102D01*
X2168Y12113D01*
X1005D01*
Y12205D01*
X312D01*
X295Y12205D01*
X262Y12242D01*
Y12368D01*
X306Y12392D01*
X312Y12388D01*
X350Y12381D01*
Y12600D01*
Y12819D01*
X312Y12812D01*
X306Y12808D01*
X262Y12832D01*
Y14378D01*
X285Y14396D01*
X357Y14410D01*
X418Y14451D01*
X459Y14512D01*
X473Y14585D01*
X459Y14657D01*
X430Y14700D01*
X453Y14750D01*
X9750D01*
Y14687D01*
D02*
G37*
%LPC*%
G36*
X8250Y4600D02*
X8081D01*
X8088Y4562D01*
X8138Y4488D01*
X8212Y4438D01*
X8250Y4431D01*
Y4600D01*
D02*
G37*
G36*
X9311Y5122D02*
X9219Y5110D01*
X9132Y5074D01*
X9058Y5017D01*
X9001Y4943D01*
X8965Y4856D01*
X8953Y4763D01*
X8965Y4671D01*
X9001Y4584D01*
X9058Y4510D01*
X9132Y4453D01*
X9219Y4417D01*
X9311Y4405D01*
X9404Y4417D01*
X9491Y4453D01*
X9565Y4510D01*
X9622Y4584D01*
X9658Y4671D01*
X9670Y4763D01*
X9658Y4856D01*
X9622Y4943D01*
X9565Y5017D01*
X9491Y5074D01*
X9404Y5110D01*
X9311Y5122D01*
D02*
G37*
G36*
X1042Y4713D02*
X700D01*
Y4371D01*
X753Y4378D01*
X849Y4418D01*
X932Y4481D01*
X995Y4564D01*
X1035Y4660D01*
X1042Y4713D01*
D02*
G37*
G36*
X8519Y4600D02*
X8350D01*
Y4431D01*
X8388Y4438D01*
X8462Y4488D01*
X8512Y4562D01*
X8519Y4600D01*
D02*
G37*
G36*
X9311Y5909D02*
X9219Y5897D01*
X9132Y5861D01*
X9058Y5804D01*
X9001Y5730D01*
X8965Y5644D01*
X8953Y5551D01*
X8965Y5458D01*
X9001Y5372D01*
X9058Y5297D01*
X9132Y5240D01*
X9219Y5205D01*
X9311Y5192D01*
X9404Y5205D01*
X9491Y5240D01*
X9565Y5297D01*
X9622Y5372D01*
X9658Y5458D01*
X9670Y5551D01*
X9658Y5644D01*
X9622Y5730D01*
X9565Y5804D01*
X9491Y5861D01*
X9404Y5897D01*
X9311Y5909D01*
D02*
G37*
G36*
X7450Y5750D02*
X7281D01*
X7288Y5712D01*
X7338Y5638D01*
X7412Y5588D01*
X7450Y5581D01*
Y5750D01*
D02*
G37*
G36*
X8250Y4869D02*
X8212Y4862D01*
X8138Y4812D01*
X8088Y4738D01*
X8081Y4700D01*
X8250D01*
Y4869D01*
D02*
G37*
G36*
X8350D02*
Y4700D01*
X8519D01*
X8512Y4738D01*
X8462Y4812D01*
X8388Y4862D01*
X8350Y4869D01*
D02*
G37*
G36*
X3837Y3257D02*
Y3087D01*
X4007D01*
X3999Y3125D01*
X3950Y3200D01*
X3875Y3249D01*
X3837Y3257D01*
D02*
G37*
G36*
X1150Y2534D02*
Y1500D01*
X2184D01*
X2174Y1620D01*
X2134Y1786D01*
X2069Y1944D01*
X1980Y2089D01*
X1869Y2219D01*
X1739Y2330D01*
X1594Y2419D01*
X1436Y2484D01*
X1270Y2524D01*
X1150Y2534D01*
D02*
G37*
G36*
X8900D02*
X8780Y2524D01*
X8614Y2484D01*
X8456Y2419D01*
X8311Y2330D01*
X8181Y2219D01*
X8070Y2089D01*
X7981Y1944D01*
X7916Y1786D01*
X7876Y1620D01*
X7866Y1500D01*
X8900D01*
Y2534D01*
D02*
G37*
G36*
X2184Y1400D02*
X1150D01*
Y366D01*
X1270Y376D01*
X1436Y416D01*
X1594Y481D01*
X1739Y570D01*
X1869Y681D01*
X1980Y811D01*
X2069Y956D01*
X2134Y1114D01*
X2174Y1280D01*
X2184Y1400D01*
D02*
G37*
G36*
X8900D02*
X7866D01*
X7876Y1280D01*
X7916Y1114D01*
X7981Y956D01*
X8070Y811D01*
X8181Y681D01*
X8311Y570D01*
X8456Y481D01*
X8614Y416D01*
X8780Y376D01*
X8900Y366D01*
Y1400D01*
D02*
G37*
G36*
X3737Y2750D02*
X3568D01*
X3575Y2712D01*
X3625Y2638D01*
X3700Y2588D01*
X3737Y2581D01*
Y2750D01*
D02*
G37*
G36*
X5950Y3563D02*
X4400D01*
X4319Y3552D01*
X4244Y3521D01*
X4179Y3471D01*
X4129Y3406D01*
X4098Y3331D01*
X4087Y3250D01*
X4098Y3169D01*
X4129Y3094D01*
X4179Y3029D01*
X4244Y2979D01*
X4319Y2948D01*
X4400Y2937D01*
X5950D01*
X6031Y2948D01*
X6106Y2979D01*
X6171Y3029D01*
X6221Y3094D01*
X6252Y3169D01*
X6263Y3250D01*
X6252Y3331D01*
X6221Y3406D01*
X6171Y3471D01*
X6106Y3521D01*
X6031Y3552D01*
X5950Y3563D01*
D02*
G37*
G36*
X3737Y3257D02*
X3700Y3249D01*
X3625Y3200D01*
X3575Y3125D01*
X3568Y3087D01*
X3737D01*
Y3257D01*
D02*
G37*
G36*
X4007Y2750D02*
X3837D01*
Y2581D01*
X3875Y2588D01*
X3950Y2638D01*
X3999Y2712D01*
X4007Y2750D01*
D02*
G37*
G36*
Y2987D02*
X3568D01*
X3575Y2950D01*
X3596Y2919D01*
X3575Y2888D01*
X3568Y2850D01*
X4007D01*
X3999Y2888D01*
X3979Y2919D01*
X3999Y2950D01*
X4007Y2987D01*
D02*
G37*
G36*
X7719Y5750D02*
X7550D01*
Y5581D01*
X7588Y5588D01*
X7662Y5638D01*
X7712Y5712D01*
X7719Y5750D01*
D02*
G37*
G36*
X4950Y13500D02*
X3916D01*
X3926Y13380D01*
X3966Y13214D01*
X4031Y13056D01*
X4120Y12911D01*
X4231Y12781D01*
X4361Y12670D01*
X4506Y12581D01*
X4664Y12516D01*
X4830Y12476D01*
X4950Y12466D01*
Y13500D01*
D02*
G37*
G36*
X6084D02*
X5050D01*
Y12466D01*
X5170Y12476D01*
X5336Y12516D01*
X5494Y12581D01*
X5639Y12670D01*
X5769Y12781D01*
X5880Y12911D01*
X5969Y13056D01*
X6034Y13214D01*
X6074Y13380D01*
X6084Y13500D01*
D02*
G37*
G36*
X8883Y12630D02*
X8713D01*
X8721Y12593D01*
X8771Y12518D01*
X8845Y12469D01*
X8883Y12461D01*
Y12630D01*
D02*
G37*
G36*
X9152D02*
X8983D01*
Y12461D01*
X9021Y12469D01*
X9095Y12518D01*
X9145Y12593D01*
X9152Y12630D01*
D02*
G37*
G36*
X450Y12819D02*
Y12650D01*
X619D01*
X612Y12688D01*
X562Y12762D01*
X488Y12812D01*
X450Y12819D01*
D02*
G37*
G36*
X4950Y14634D02*
X4830Y14624D01*
X4664Y14584D01*
X4506Y14519D01*
X4361Y14430D01*
X4231Y14319D01*
X4120Y14189D01*
X4031Y14044D01*
X3966Y13886D01*
X3926Y13720D01*
X3916Y13600D01*
X4950D01*
Y14634D01*
D02*
G37*
G36*
X5050D02*
Y13600D01*
X6084D01*
X6074Y13720D01*
X6034Y13886D01*
X5969Y14044D01*
X5880Y14189D01*
X5769Y14319D01*
X5639Y14430D01*
X5494Y14519D01*
X5336Y14584D01*
X5170Y14624D01*
X5050Y14634D01*
D02*
G37*
G36*
X8883Y12900D02*
X8845Y12892D01*
X8771Y12843D01*
X8721Y12768D01*
X8713Y12730D01*
X8883D01*
Y12900D01*
D02*
G37*
G36*
X8983D02*
Y12730D01*
X9152D01*
X9145Y12768D01*
X9095Y12843D01*
X9021Y12892D01*
X8983Y12900D01*
D02*
G37*
G36*
X9311Y6697D02*
X9219Y6684D01*
X9132Y6649D01*
X9058Y6592D01*
X9001Y6517D01*
X8965Y6431D01*
X8953Y6338D01*
X8965Y6245D01*
X9001Y6159D01*
X9058Y6085D01*
X9132Y6028D01*
X9219Y5992D01*
X9311Y5980D01*
X9404Y5992D01*
X9491Y6028D01*
X9565Y6085D01*
X9622Y6159D01*
X9658Y6245D01*
X9670Y6338D01*
X9658Y6431D01*
X9622Y6517D01*
X9565Y6592D01*
X9491Y6649D01*
X9404Y6684D01*
X9311Y6697D01*
D02*
G37*
G36*
Y7484D02*
X9219Y7472D01*
X9132Y7436D01*
X9058Y7379D01*
X9001Y7305D01*
X8965Y7218D01*
X8953Y7126D01*
X8965Y7033D01*
X9001Y6946D01*
X9058Y6872D01*
X9132Y6815D01*
X9219Y6779D01*
X9311Y6767D01*
X9404Y6779D01*
X9491Y6815D01*
X9565Y6872D01*
X9622Y6946D01*
X9658Y7033D01*
X9670Y7126D01*
X9658Y7218D01*
X9622Y7305D01*
X9565Y7379D01*
X9491Y7436D01*
X9404Y7472D01*
X9311Y7484D01*
D02*
G37*
G36*
X7450Y6019D02*
X7412Y6012D01*
X7338Y5962D01*
X7288Y5888D01*
X7281Y5850D01*
X7450D01*
Y6019D01*
D02*
G37*
G36*
X7550D02*
Y5850D01*
X7719D01*
X7712Y5888D01*
X7662Y5962D01*
X7588Y6012D01*
X7550Y6019D01*
D02*
G37*
G36*
X8300Y7050D02*
X8131D01*
X8138Y7012D01*
X8188Y6938D01*
X8262Y6888D01*
X8300Y6881D01*
Y7050D01*
D02*
G37*
G36*
X8400Y7319D02*
Y7150D01*
X8569D01*
X8562Y7188D01*
X8512Y7262D01*
X8438Y7312D01*
X8400Y7319D01*
D02*
G37*
G36*
X619Y12550D02*
X450D01*
Y12381D01*
X488Y12388D01*
X562Y12438D01*
X612Y12512D01*
X619Y12550D01*
D02*
G37*
G36*
X8569Y7050D02*
X8400D01*
Y6881D01*
X8438Y6888D01*
X8512Y6938D01*
X8562Y7012D01*
X8569Y7050D01*
D02*
G37*
G36*
X8300Y7319D02*
X8262Y7312D01*
X8188Y7262D01*
X8138Y7188D01*
X8131Y7150D01*
X8300D01*
Y7319D01*
D02*
G37*
%LPD*%
D15*
X9311Y7913D02*
X9757Y8358D01*
Y14500D01*
X650Y10275D02*
X650Y10275D01*
X650Y11063D02*
X1163D01*
X650Y10275D02*
X725Y10350D01*
X1500D01*
X150Y8413D02*
X650Y7913D01*
X150Y8413D02*
Y14514D01*
X285Y14585D01*
D17*
X650Y11850D02*
D03*
D18*
Y11063D02*
D03*
Y10275D02*
D03*
Y9488D02*
D03*
Y8700D02*
D03*
Y7913D02*
D03*
Y7126D02*
D03*
Y6338D02*
D03*
Y5551D02*
D03*
Y4763D02*
D03*
X9311D02*
D03*
Y5551D02*
D03*
Y6338D02*
D03*
Y7126D02*
D03*
Y7913D02*
D03*
Y8700D02*
D03*
Y9488D02*
D03*
Y10275D02*
D03*
Y11063D02*
D03*
Y11850D02*
D03*
D19*
X1100Y1450D02*
D03*
X8950D02*
D03*
X5000Y13550D02*
D03*
D21*
X5900Y3250D02*
D03*
X7500Y5800D02*
D03*
X8300Y4650D02*
D03*
X8350Y7100D02*
D03*
X3787Y3037D02*
D03*
X285Y14585D02*
D03*
X3787Y2800D02*
D03*
X9757Y14500D02*
D03*
X2168Y11800D02*
D03*
X4400Y3250D02*
D03*
X1163Y11063D02*
D03*
X1500Y10350D02*
D03*
X400Y12600D02*
D03*
X8933Y12680D02*
D03*
D22*
X4400Y3250D02*
X5950D01*
X650Y11850D02*
X700Y11800D01*
X2168D01*
M02*
