M48
;Layer_Color=9474304
;FILE_FORMAT=2:4
INCH,TZ
;TYPE=PLATED
T1F00S00C0.0130
T2F00S00C0.0394
T3F00S00C0.1220
%
T01
X3787Y2800
Y3037
X4400Y3250
X6141Y3244
X8933Y12680
X9757Y14500
X285Y14585
X400Y12600
X1163Y11063
X1500Y10350
X2168Y11800
T02
X650Y4763
Y5551
X9311Y5551
Y4763
Y6338
Y7126
Y7913
Y8700
Y9488
Y10275
Y11063
Y11850
X650
Y11063
Y10275
Y9488
Y8700
Y7913
Y7126
Y6338
T03
X1100Y1450
X8950
X5000Y13550
M30
