G04 Layer_Color=8388736*
%FSLAX24Y24*%
%MOIN*%
G70*
G01*
G75*
G04:AMPARAMS|DCode=28|XSize=55.2mil|YSize=39.5mil|CornerRadius=5.6mil|HoleSize=0mil|Usage=FLASHONLY|Rotation=180.000|XOffset=0mil|YOffset=0mil|HoleType=Round|Shape=RoundedRectangle|*
%AMROUNDEDRECTD28*
21,1,0.0552,0.0283,0,0,180.0*
21,1,0.0441,0.0395,0,0,180.0*
1,1,0.0112,-0.0220,0.0142*
1,1,0.0112,0.0220,0.0142*
1,1,0.0112,0.0220,-0.0142*
1,1,0.0112,-0.0220,-0.0142*
%
%ADD28ROUNDEDRECTD28*%
%ADD29R,0.0316X0.0513*%
G04:AMPARAMS|DCode=30|XSize=41.5mil|YSize=43.4mil|CornerRadius=5.7mil|HoleSize=0mil|Usage=FLASHONLY|Rotation=90.000|XOffset=0mil|YOffset=0mil|HoleType=Round|Shape=RoundedRectangle|*
%AMROUNDEDRECTD30*
21,1,0.0415,0.0321,0,0,90.0*
21,1,0.0301,0.0434,0,0,90.0*
1,1,0.0113,0.0160,0.0151*
1,1,0.0113,0.0160,-0.0151*
1,1,0.0113,-0.0160,-0.0151*
1,1,0.0113,-0.0160,0.0151*
%
%ADD30ROUNDEDRECTD30*%
%ADD31R,0.0356X0.0789*%
%ADD32R,0.0671X0.0671*%
%ADD33C,0.0671*%
%ADD34C,0.2049*%
%ADD35R,0.0710X0.0946*%
D28*
X7156Y7100D02*
D03*
X7844D02*
D03*
X7156Y4650D02*
D03*
X7844D02*
D03*
D29*
X7126Y5378D02*
D03*
X7500D02*
D03*
X7874D02*
D03*
Y6322D02*
D03*
X7126D02*
D03*
D30*
X700Y12615D02*
D03*
Y13285D02*
D03*
X1394Y12615D02*
D03*
Y13285D02*
D03*
X2089Y12615D02*
D03*
Y13285D02*
D03*
X9266Y12680D02*
D03*
Y13350D02*
D03*
X8600Y12680D02*
D03*
Y13350D02*
D03*
Y13865D02*
D03*
Y14535D02*
D03*
X2100Y13880D02*
D03*
Y14550D02*
D03*
X1406Y13880D02*
D03*
Y14550D02*
D03*
X711Y13880D02*
D03*
Y14550D02*
D03*
X9266Y13880D02*
D03*
Y14550D02*
D03*
D31*
X6248Y2395D02*
D03*
X5756D02*
D03*
X5264D02*
D03*
X4772D02*
D03*
X4280D02*
D03*
X3787D02*
D03*
D32*
X650Y11850D02*
D03*
D33*
Y11063D02*
D03*
Y10275D02*
D03*
Y9488D02*
D03*
Y8700D02*
D03*
Y7913D02*
D03*
Y7126D02*
D03*
Y6338D02*
D03*
Y5551D02*
D03*
Y4763D02*
D03*
X9311D02*
D03*
Y5551D02*
D03*
Y6338D02*
D03*
Y7126D02*
D03*
Y7913D02*
D03*
Y8700D02*
D03*
Y9488D02*
D03*
Y10275D02*
D03*
Y11063D02*
D03*
Y11850D02*
D03*
D34*
X1100Y1450D02*
D03*
X8950D02*
D03*
X5000Y13550D02*
D03*
D35*
X2850Y1100D02*
D03*
X7161D02*
D03*
M02*
